<svg width="1920" height="1080" viewBox="0 0 1920 1080" fill="none" xmlns="http://www.w3.org/2000/svg">
<path d="M303.84 774.2C264.48 774.2 228.24 767.72 195.12 754.76C162 741.8 133.2 723.8 108.72 700.76C84.24 677.24 65.28 649.88 51.84 618.68C38.4 587 31.68 552.44 31.68 515C31.68 477.56 38.4 443.24 51.84 412.04C65.28 380.36 84.24 353 108.72 329.96C133.2 306.44 162 288.2 195.12 275.24C228.24 262.28 264.24 255.8 303.12 255.8C342.48 255.8 378.48 262.28 411.12 275.24C444.24 288.2 473.04 306.2 497.52 329.24C522 352.28 540.96 379.64 554.4 411.32C567.84 443 574.56 477.56 574.56 515C574.56 552.44 567.84 587 554.4 618.68C540.96 650.36 522 677.72 497.52 700.76C473.04 723.8 444.24 741.8 411.12 754.76C378.48 767.72 342.72 774.2 303.84 774.2ZM468 877.16C450.24 877.16 432.96 875 416.16 870.68C399.84 866.84 383.52 860.12 367.2 850.52C351.36 841.4 334.8 829.16 317.52 813.8C300.24 798.92 281.28 780.44 260.64 758.36L360 732.44C373.44 750.2 386.16 764.36 398.16 774.92C410.64 785.96 422.64 793.88 434.16 798.68C445.68 803.48 457.68 805.88 470.16 805.88C503.28 805.88 532.08 792.44 556.56 765.56L599.76 817.4C566.16 857.24 522.24 877.16 468 877.16ZM303.12 692.12C328.56 692.12 352.08 687.8 373.68 679.16C395.28 670.52 414 658.28 429.84 642.44C445.68 626.12 457.92 607.16 466.56 585.56C475.68 563.96 480.24 540.44 480.24 515C480.24 489.08 475.68 465.56 466.56 444.44C457.92 422.84 445.68 404.12 429.84 388.28C414 371.96 395.28 359.48 373.68 350.84C352.08 342.2 328.56 337.88 303.12 337.88C277.68 337.88 254.16 342.2 232.56 350.84C210.96 359.48 192.24 371.96 176.4 388.28C160.56 404.12 148.08 422.84 138.96 444.44C130.32 465.56 126 489.08 126 515C126 540.44 130.32 563.96 138.96 585.56C148.08 607.16 160.56 626.12 176.4 642.44C192.24 658.28 210.96 670.52 232.56 679.16C254.16 687.8 277.68 692.12 303.12 692.12ZM559.744 767V452H711.394C740.794 452 766.144 456.8 787.444 466.4C809.044 476 825.694 489.8 837.394 507.8C849.094 525.5 854.944 546.5 854.944 570.8C854.944 595.1 849.094 616.1 837.394 633.8C825.694 651.2 809.044 664.55 787.444 673.85C766.144 683.15 740.794 687.8 711.394 687.8H618.694L665.944 644.15V767H559.744ZM748.294 767L670.894 652.25H783.394L861.694 767H748.294ZM665.944 655.85L618.694 607.7H704.644C719.344 607.7 730.144 604.4 737.044 597.8C744.244 591.2 747.844 582.2 747.844 570.8C747.844 559.4 744.244 550.4 737.044 543.8C730.144 537.2 719.344 533.9 704.644 533.9H618.694L665.944 485.75V655.85ZM850.046 767V452H956.246V767H850.046ZM1127.52 774.2C1102.02 774.2 1078.32 770.15 1056.42 762.05C1034.82 753.95 1016.07 742.55 1000.17 727.85C984.271 712.85 971.821 695.3 962.821 675.2C954.121 655.1 949.771 633.2 949.771 609.5C949.771 585.5 954.121 563.6 962.821 543.8C971.821 523.7 984.271 506.3 1000.17 491.6C1016.07 476.6 1034.82 465.05 1056.42 456.95C1078.32 448.85 1102.02 444.8 1127.52 444.8C1153.32 444.8 1177.02 448.85 1198.62 456.95C1220.22 465.05 1238.97 476.6 1254.87 491.6C1270.77 506.3 1283.07 523.7 1291.77 543.8C1300.77 563.6 1305.27 585.5 1305.27 609.5C1305.27 633.2 1300.77 655.1 1291.77 675.2C1283.07 695.3 1270.77 712.85 1254.87 727.85C1238.97 742.55 1220.22 753.95 1198.62 762.05C1177.02 770.15 1153.32 774.2 1127.52 774.2ZM1127.52 688.25C1137.42 688.25 1146.57 686.45 1154.97 682.85C1163.67 679.25 1171.17 674.15 1177.47 667.55C1184.07 660.65 1189.17 652.4 1192.77 642.8C1196.37 632.9 1198.17 621.8 1198.17 609.5C1198.17 597.2 1196.37 586.25 1192.77 576.65C1189.17 566.75 1184.07 558.5 1177.47 551.9C1171.17 545 1163.67 539.75 1154.97 536.15C1146.57 532.55 1137.42 530.75 1127.52 530.75C1117.62 530.75 1108.32 532.55 1099.62 536.15C1091.22 539.75 1083.72 545 1077.12 551.9C1070.82 558.5 1065.87 566.75 1062.27 576.65C1058.67 586.25 1056.87 597.2 1056.87 609.5C1056.87 621.8 1058.67 632.9 1062.27 642.8C1065.87 652.4 1070.82 660.65 1077.12 667.55C1083.72 674.15 1091.22 679.25 1099.62 682.85C1108.32 686.45 1117.62 688.25 1127.52 688.25ZM1449.57 774.2C1401.27 774.2 1363.62 761.15 1336.62 735.05C1309.62 708.95 1296.12 672.35 1296.12 625.25V452H1402.32V622.1C1402.32 646.1 1406.67 663.2 1415.37 673.4C1424.07 683.3 1435.77 688.25 1450.47 688.25C1465.47 688.25 1477.17 683.3 1485.57 673.4C1494.27 663.2 1498.62 646.1 1498.62 622.1V452H1603.02V625.25C1603.02 672.35 1589.52 708.95 1562.52 735.05C1535.52 761.15 1497.87 774.2 1449.57 774.2ZM1724.15 774.2C1697.75 774.2 1672.25 771.2 1647.65 765.2C1623.05 759.2 1602.8 751.4 1586.9 741.8L1621.1 664.4C1636.1 673.1 1652.75 680.15 1671.05 685.55C1689.65 690.65 1707.65 693.2 1725.05 693.2C1735.25 693.2 1743.2 692.6 1748.9 691.4C1754.9 689.9 1759.25 687.95 1761.95 685.55C1764.65 682.85 1766 679.7 1766 676.1C1766 670.4 1762.85 665.9 1756.55 662.6C1750.25 659.3 1741.85 656.6 1731.35 654.5C1721.15 652.1 1709.9 649.7 1697.6 647.3C1685.3 644.6 1672.85 641.15 1660.25 636.95C1647.95 632.75 1636.55 627.2 1626.05 620.3C1615.85 613.4 1607.6 604.4 1601.3 593.3C1595 581.9 1591.85 567.8 1591.85 551C1591.85 531.5 1597.25 513.8 1608.05 497.9C1619.15 481.7 1635.5 468.8 1657.1 459.2C1679 449.6 1706.15 444.8 1738.55 444.8C1759.85 444.8 1780.85 447.05 1801.55 451.55C1822.25 456.05 1840.85 462.95 1857.35 472.25L1825.4 549.2C1809.8 541.4 1794.65 535.55 1779.95 531.65C1765.55 527.75 1751.45 525.8 1737.65 525.8C1727.45 525.8 1719.35 526.7 1713.35 528.5C1707.35 530.3 1703 532.7 1700.3 535.7C1697.9 538.7 1696.7 542 1696.7 545.6C1696.7 551 1699.85 555.35 1706.15 558.65C1712.45 561.65 1720.7 564.2 1730.9 566.3C1741.4 568.4 1752.8 570.65 1765.1 573.05C1777.7 575.45 1790.15 578.75 1802.45 582.95C1814.75 587.15 1826 592.7 1836.2 599.6C1846.7 606.5 1855.1 615.5 1861.4 626.6C1867.7 637.7 1870.85 651.5 1870.85 668C1870.85 687.2 1865.3 704.9 1854.2 721.1C1843.4 737 1827.2 749.9 1805.6 759.8C1784 769.4 1756.85 774.2 1724.15 774.2Z" fill="#334155"/>
</svg>
